<mxfile host="app.diagrams.net" modified="2023-01-21T02:45:29.318Z" agent="5.0 (Windows NT 10.0; Win64; x64) AppleWebKit/537.36 (KHTML, like Gecko) Chrome/109.0.0.0 Safari/537.36" etag="YtSfXK-yABPXFE4Ipb2H" version="20.8.9" type="github">
  <diagram id="C5RBs43oDa-KdzZeNtuy" name="Page-1">
    <mxGraphModel dx="880" dy="1621" grid="1" gridSize="10" guides="1" tooltips="1" connect="1" arrows="1" fold="1" page="1" pageScale="1" pageWidth="827" pageHeight="1169" math="0" shadow="0">
      <root>
        <mxCell id="WIyWlLk6GJQsqaUBKTNV-0" />
        <mxCell id="WIyWlLk6GJQsqaUBKTNV-1" parent="WIyWlLk6GJQsqaUBKTNV-0" />
        <mxCell id="WIyWlLk6GJQsqaUBKTNV-3" value="HOME" style="rounded=1;whiteSpace=wrap;html=1;fontSize=12;glass=0;strokeWidth=1;shadow=0;" parent="WIyWlLk6GJQsqaUBKTNV-1" vertex="1">
          <mxGeometry x="170" y="40" width="120" height="40" as="geometry" />
        </mxCell>
        <mxCell id="a4RW8in_WkRwGg94psA6-1" value="NAVIGATION BAR" style="rounded=0;whiteSpace=wrap;html=1;" parent="WIyWlLk6GJQsqaUBKTNV-1" vertex="1">
          <mxGeometry x="290" y="80" width="170" height="20" as="geometry" />
        </mxCell>
        <mxCell id="a4RW8in_WkRwGg94psA6-7" value="WELCOME MESSAGE" style="rounded=0;whiteSpace=wrap;html=1;" parent="WIyWlLk6GJQsqaUBKTNV-1" vertex="1">
          <mxGeometry x="90" y="150" width="170" height="20" as="geometry" />
        </mxCell>
        <mxCell id="a4RW8in_WkRwGg94psA6-18" value="&lt;font style=&quot;font-size: 8px;&quot;&gt;services offered&amp;nbsp; &amp;nbsp; &amp;nbsp;&lt;/font&gt;" style="rounded=0;whiteSpace=wrap;html=1;align=right;" parent="WIyWlLk6GJQsqaUBKTNV-1" vertex="1">
          <mxGeometry x="105" y="220" width="140" height="60" as="geometry" />
        </mxCell>
        <mxCell id="a4RW8in_WkRwGg94psA6-19" value="&lt;font style=&quot;font-size: 7px;&quot;&gt;counter&lt;/font&gt;" style="rounded=1;whiteSpace=wrap;html=1;" parent="WIyWlLk6GJQsqaUBKTNV-1" vertex="1">
          <mxGeometry x="130" y="230" width="30" height="40" as="geometry" />
        </mxCell>
        <mxCell id="a4RW8in_WkRwGg94psA6-20" value="&lt;b style=&quot;&quot;&gt;&lt;font style=&quot;font-size: 25px;&quot;&gt;T&amp;nbsp; &amp;nbsp; &amp;nbsp;&lt;/font&gt;&lt;/b&gt;" style="rounded=0;whiteSpace=wrap;html=1;align=right;" parent="WIyWlLk6GJQsqaUBKTNV-1" vertex="1">
          <mxGeometry x="106" y="319" width="140" height="60" as="geometry" />
        </mxCell>
        <mxCell id="a4RW8in_WkRwGg94psA6-21" value="&lt;font size=&quot;1&quot; style=&quot;&quot;&gt;&lt;b style=&quot;&quot;&gt;IMG&lt;/b&gt;&lt;/font&gt;" style="rounded=1;whiteSpace=wrap;html=1;" parent="WIyWlLk6GJQsqaUBKTNV-1" vertex="1">
          <mxGeometry x="130" y="329" width="30" height="40" as="geometry" />
        </mxCell>
        <mxCell id="a4RW8in_WkRwGg94psA6-23" value="&lt;font style=&quot;font-size: 15px;&quot;&gt;&lt;b&gt;T&lt;/b&gt;&lt;/font&gt;" style="rounded=1;whiteSpace=wrap;html=1;" parent="WIyWlLk6GJQsqaUBKTNV-1" vertex="1">
          <mxGeometry x="190" y="329" width="30" height="40" as="geometry" />
        </mxCell>
        <mxCell id="a4RW8in_WkRwGg94psA6-25" value="" style="rounded=0;whiteSpace=wrap;html=1;align=right;" parent="WIyWlLk6GJQsqaUBKTNV-1" vertex="1">
          <mxGeometry x="107" y="421" width="140" height="60" as="geometry" />
        </mxCell>
        <mxCell id="a4RW8in_WkRwGg94psA6-27" value="&lt;font size=&quot;1&quot; style=&quot;&quot;&gt;&lt;b style=&quot;font-size: 7px;&quot;&gt;CARD&lt;/b&gt;&lt;/font&gt;" style="rounded=1;whiteSpace=wrap;html=1;" parent="WIyWlLk6GJQsqaUBKTNV-1" vertex="1">
          <mxGeometry x="130" y="431" width="30" height="40" as="geometry" />
        </mxCell>
        <mxCell id="a4RW8in_WkRwGg94psA6-28" value="&lt;font size=&quot;1&quot; style=&quot;&quot;&gt;&lt;b style=&quot;font-size: 7px;&quot;&gt;CARD&lt;/b&gt;&lt;/font&gt;" style="rounded=1;whiteSpace=wrap;html=1;" parent="WIyWlLk6GJQsqaUBKTNV-1" vertex="1">
          <mxGeometry x="190" y="431" width="30" height="40" as="geometry" />
        </mxCell>
        <mxCell id="a4RW8in_WkRwGg94psA6-30" value="" style="endArrow=classic;startArrow=classic;html=1;rounded=0;fontSize=7;" parent="WIyWlLk6GJQsqaUBKTNV-1" edge="1">
          <mxGeometry width="50" height="50" relative="1" as="geometry">
            <mxPoint x="170" y="140" as="sourcePoint" />
            <mxPoint x="220" y="90" as="targetPoint" />
          </mxGeometry>
        </mxCell>
        <mxCell id="a4RW8in_WkRwGg94psA6-33" value="" style="endArrow=none;html=1;rounded=0;fontSize=7;" parent="WIyWlLk6GJQsqaUBKTNV-1" edge="1">
          <mxGeometry width="50" height="50" relative="1" as="geometry">
            <mxPoint x="320" y="100" as="sourcePoint" />
            <mxPoint x="320" y="200" as="targetPoint" />
          </mxGeometry>
        </mxCell>
        <mxCell id="a4RW8in_WkRwGg94psA6-35" value="&lt;b&gt;ABOUT&lt;/b&gt;" style="rounded=0;whiteSpace=wrap;html=1;fontSize=7;" parent="WIyWlLk6GJQsqaUBKTNV-1" vertex="1">
          <mxGeometry x="290" y="200" width="60" height="30" as="geometry" />
        </mxCell>
        <mxCell id="a4RW8in_WkRwGg94psA6-37" value="" style="endArrow=classic;html=1;rounded=0;fontSize=7;" parent="WIyWlLk6GJQsqaUBKTNV-1" edge="1">
          <mxGeometry width="50" height="50" relative="1" as="geometry">
            <mxPoint x="319.5" y="230" as="sourcePoint" />
            <mxPoint x="319.5" y="280" as="targetPoint" />
          </mxGeometry>
        </mxCell>
        <mxCell id="a4RW8in_WkRwGg94psA6-42" value="" style="endArrow=classic;html=1;rounded=0;fontSize=7;" parent="WIyWlLk6GJQsqaUBKTNV-1" edge="1">
          <mxGeometry width="50" height="50" relative="1" as="geometry">
            <mxPoint x="175.5" y="382" as="sourcePoint" />
            <mxPoint x="176" y="417" as="targetPoint" />
          </mxGeometry>
        </mxCell>
        <mxCell id="a4RW8in_WkRwGg94psA6-44" value="" style="endArrow=classic;html=1;rounded=0;fontSize=7;" parent="WIyWlLk6GJQsqaUBKTNV-1" edge="1">
          <mxGeometry width="50" height="50" relative="1" as="geometry">
            <mxPoint x="174.5" y="280" as="sourcePoint" />
            <mxPoint x="175" y="315" as="targetPoint" />
          </mxGeometry>
        </mxCell>
        <mxCell id="a4RW8in_WkRwGg94psA6-45" value="" style="endArrow=classic;html=1;rounded=0;fontSize=7;" parent="WIyWlLk6GJQsqaUBKTNV-1" edge="1">
          <mxGeometry width="50" height="50" relative="1" as="geometry">
            <mxPoint x="174.5" y="180" as="sourcePoint" />
            <mxPoint x="175" y="215" as="targetPoint" />
          </mxGeometry>
        </mxCell>
        <mxCell id="a4RW8in_WkRwGg94psA6-48" value="" style="rounded=0;whiteSpace=wrap;html=1;align=right;" parent="WIyWlLk6GJQsqaUBKTNV-1" vertex="1">
          <mxGeometry x="107" y="524" width="140" height="60" as="geometry" />
        </mxCell>
        <mxCell id="a4RW8in_WkRwGg94psA6-49" value="" style="endArrow=classic;html=1;rounded=0;fontSize=7;" parent="WIyWlLk6GJQsqaUBKTNV-1" edge="1">
          <mxGeometry width="50" height="50" relative="1" as="geometry">
            <mxPoint x="174.5" y="481" as="sourcePoint" />
            <mxPoint x="175" y="516" as="targetPoint" />
          </mxGeometry>
        </mxCell>
        <mxCell id="a4RW8in_WkRwGg94psA6-50" value="&lt;font size=&quot;1&quot; style=&quot;&quot;&gt;&lt;b style=&quot;font-size: 7px;&quot;&gt;CARD&lt;/b&gt;&lt;/font&gt;" style="rounded=1;whiteSpace=wrap;html=1;" parent="WIyWlLk6GJQsqaUBKTNV-1" vertex="1">
          <mxGeometry x="120" y="550" width="30" height="30" as="geometry" />
        </mxCell>
        <mxCell id="a4RW8in_WkRwGg94psA6-51" value="&lt;font size=&quot;1&quot; style=&quot;&quot;&gt;&lt;b style=&quot;font-size: 7px;&quot;&gt;CARD&lt;/b&gt;&lt;/font&gt;" style="rounded=1;whiteSpace=wrap;html=1;" parent="WIyWlLk6GJQsqaUBKTNV-1" vertex="1">
          <mxGeometry x="160" y="550" width="30" height="30" as="geometry" />
        </mxCell>
        <mxCell id="a4RW8in_WkRwGg94psA6-52" value="&lt;font size=&quot;1&quot; style=&quot;&quot;&gt;&lt;b style=&quot;font-size: 7px;&quot;&gt;CARD&lt;/b&gt;&lt;/font&gt;" style="rounded=1;whiteSpace=wrap;html=1;" parent="WIyWlLk6GJQsqaUBKTNV-1" vertex="1">
          <mxGeometry x="200" y="550" width="30" height="30" as="geometry" />
        </mxCell>
        <mxCell id="a4RW8in_WkRwGg94psA6-54" value="&lt;b&gt;&lt;font style=&quot;font-size: 9px;&quot;&gt;T&lt;/font&gt;&lt;/b&gt;" style="rounded=0;whiteSpace=wrap;html=1;fontSize=7;" parent="WIyWlLk6GJQsqaUBKTNV-1" vertex="1">
          <mxGeometry x="126" y="529" width="100" height="16" as="geometry" />
        </mxCell>
        <mxCell id="a4RW8in_WkRwGg94psA6-55" value="" style="rounded=0;whiteSpace=wrap;html=1;align=right;" parent="WIyWlLk6GJQsqaUBKTNV-1" vertex="1">
          <mxGeometry x="107" y="624" width="140" height="60" as="geometry" />
        </mxCell>
        <mxCell id="a4RW8in_WkRwGg94psA6-56" value="" style="endArrow=classic;html=1;rounded=0;fontSize=7;" parent="WIyWlLk6GJQsqaUBKTNV-1" edge="1">
          <mxGeometry width="50" height="50" relative="1" as="geometry">
            <mxPoint x="174.5" y="584.5" as="sourcePoint" />
            <mxPoint x="175" y="619.5" as="targetPoint" />
          </mxGeometry>
        </mxCell>
        <mxCell id="a4RW8in_WkRwGg94psA6-59" value="T" style="rounded=0;whiteSpace=wrap;html=1;fontSize=9;" parent="WIyWlLk6GJQsqaUBKTNV-1" vertex="1">
          <mxGeometry x="120" y="650" width="20" height="30" as="geometry" />
        </mxCell>
        <mxCell id="a4RW8in_WkRwGg94psA6-60" value="T" style="rounded=0;whiteSpace=wrap;html=1;fontSize=9;" parent="WIyWlLk6GJQsqaUBKTNV-1" vertex="1">
          <mxGeometry x="150" y="650" width="20" height="30" as="geometry" />
        </mxCell>
        <mxCell id="a4RW8in_WkRwGg94psA6-61" value="T" style="rounded=0;whiteSpace=wrap;html=1;fontSize=9;" parent="WIyWlLk6GJQsqaUBKTNV-1" vertex="1">
          <mxGeometry x="180" y="650" width="20" height="30" as="geometry" />
        </mxCell>
        <mxCell id="a4RW8in_WkRwGg94psA6-63" value="T" style="rounded=0;whiteSpace=wrap;html=1;fontSize=9;" parent="WIyWlLk6GJQsqaUBKTNV-1" vertex="1">
          <mxGeometry x="210" y="650" width="20" height="30" as="geometry" />
        </mxCell>
        <mxCell id="a4RW8in_WkRwGg94psA6-64" value="&lt;b&gt;T&lt;/b&gt;" style="rounded=0;whiteSpace=wrap;html=1;fontSize=9;" parent="WIyWlLk6GJQsqaUBKTNV-1" vertex="1">
          <mxGeometry x="120" y="630" width="120" height="10" as="geometry" />
        </mxCell>
        <mxCell id="a4RW8in_WkRwGg94psA6-66" value="" style="rounded=0;whiteSpace=wrap;html=1;align=right;" parent="WIyWlLk6GJQsqaUBKTNV-1" vertex="1">
          <mxGeometry x="274" y="280" width="140" height="80" as="geometry" />
        </mxCell>
        <mxCell id="a4RW8in_WkRwGg94psA6-67" value="&lt;font size=&quot;1&quot; style=&quot;&quot;&gt;&lt;b style=&quot;&quot;&gt;IMG&lt;/b&gt;&lt;/font&gt;" style="rounded=1;whiteSpace=wrap;html=1;" parent="WIyWlLk6GJQsqaUBKTNV-1" vertex="1">
          <mxGeometry x="360" y="289" width="30" height="40" as="geometry" />
        </mxCell>
        <mxCell id="a4RW8in_WkRwGg94psA6-68" value="&lt;font style=&quot;font-size: 15px;&quot;&gt;&lt;b&gt;T&lt;/b&gt;&lt;/font&gt;" style="rounded=1;whiteSpace=wrap;html=1;" parent="WIyWlLk6GJQsqaUBKTNV-1" vertex="1">
          <mxGeometry x="300" y="289" width="30" height="40" as="geometry" />
        </mxCell>
        <mxCell id="a4RW8in_WkRwGg94psA6-69" value="" style="rounded=0;whiteSpace=wrap;html=1;align=right;" parent="WIyWlLk6GJQsqaUBKTNV-1" vertex="1">
          <mxGeometry x="274" y="400" width="140" height="60" as="geometry" />
        </mxCell>
        <mxCell id="a4RW8in_WkRwGg94psA6-70" value="" style="endArrow=classic;html=1;rounded=0;fontSize=7;" parent="WIyWlLk6GJQsqaUBKTNV-1" edge="1">
          <mxGeometry width="50" height="50" relative="1" as="geometry">
            <mxPoint x="319.5" y="362" as="sourcePoint" />
            <mxPoint x="320" y="397" as="targetPoint" />
          </mxGeometry>
        </mxCell>
        <mxCell id="a4RW8in_WkRwGg94psA6-72" value="&lt;b&gt;IMG IMG IMG IMG&lt;/b&gt;" style="rounded=0;whiteSpace=wrap;html=1;fontSize=9;" parent="WIyWlLk6GJQsqaUBKTNV-1" vertex="1">
          <mxGeometry x="290" y="335" width="110" height="20" as="geometry" />
        </mxCell>
        <mxCell id="a4RW8in_WkRwGg94psA6-73" value="&lt;font size=&quot;1&quot; style=&quot;&quot;&gt;&lt;b style=&quot;&quot;&gt;IMG&lt;/b&gt;&lt;/font&gt;" style="rounded=1;whiteSpace=wrap;html=1;" parent="WIyWlLk6GJQsqaUBKTNV-1" vertex="1">
          <mxGeometry x="295" y="410" width="30" height="40" as="geometry" />
        </mxCell>
        <mxCell id="a4RW8in_WkRwGg94psA6-74" value="&lt;font size=&quot;1&quot; style=&quot;&quot;&gt;&lt;b style=&quot;font-size: 7px;&quot;&gt;ACCORDION&lt;/b&gt;&lt;/font&gt;" style="rounded=1;whiteSpace=wrap;html=1;" parent="WIyWlLk6GJQsqaUBKTNV-1" vertex="1">
          <mxGeometry x="345" y="411" width="60" height="40" as="geometry" />
        </mxCell>
        <mxCell id="a4RW8in_WkRwGg94psA6-75" value="" style="endArrow=classic;html=1;rounded=0;fontSize=7;" parent="WIyWlLk6GJQsqaUBKTNV-1" edge="1">
          <mxGeometry width="50" height="50" relative="1" as="geometry">
            <mxPoint x="319.5" y="460" as="sourcePoint" />
            <mxPoint x="320" y="495" as="targetPoint" />
          </mxGeometry>
        </mxCell>
        <mxCell id="a4RW8in_WkRwGg94psA6-77" value="&lt;b style=&quot;&quot;&gt;&lt;font style=&quot;font-size: 25px;&quot;&gt;T&amp;nbsp; &amp;nbsp; &amp;nbsp;&lt;/font&gt;&lt;/b&gt;" style="rounded=0;whiteSpace=wrap;html=1;align=right;" parent="WIyWlLk6GJQsqaUBKTNV-1" vertex="1">
          <mxGeometry x="275" y="499" width="140" height="60" as="geometry" />
        </mxCell>
        <mxCell id="a4RW8in_WkRwGg94psA6-78" value="&lt;font size=&quot;1&quot; style=&quot;&quot;&gt;&lt;b style=&quot;&quot;&gt;IMG&lt;/b&gt;&lt;/font&gt;" style="rounded=1;whiteSpace=wrap;html=1;" parent="WIyWlLk6GJQsqaUBKTNV-1" vertex="1">
          <mxGeometry x="299" y="509" width="30" height="40" as="geometry" />
        </mxCell>
        <mxCell id="a4RW8in_WkRwGg94psA6-79" value="&lt;font style=&quot;font-size: 15px;&quot;&gt;&lt;b&gt;T&lt;/b&gt;&lt;/font&gt;" style="rounded=1;whiteSpace=wrap;html=1;" parent="WIyWlLk6GJQsqaUBKTNV-1" vertex="1">
          <mxGeometry x="359" y="509" width="30" height="40" as="geometry" />
        </mxCell>
        <mxCell id="a4RW8in_WkRwGg94psA6-80" value="" style="rounded=0;whiteSpace=wrap;html=1;align=right;" parent="WIyWlLk6GJQsqaUBKTNV-1" vertex="1">
          <mxGeometry x="275" y="598" width="140" height="60" as="geometry" />
        </mxCell>
        <mxCell id="a4RW8in_WkRwGg94psA6-81" value="&lt;font size=&quot;1&quot; style=&quot;&quot;&gt;&lt;b style=&quot;font-size: 7px;&quot;&gt;CARD&lt;/b&gt;&lt;/font&gt;" style="rounded=1;whiteSpace=wrap;html=1;" parent="WIyWlLk6GJQsqaUBKTNV-1" vertex="1">
          <mxGeometry x="288" y="624" width="30" height="30" as="geometry" />
        </mxCell>
        <mxCell id="a4RW8in_WkRwGg94psA6-82" value="&lt;font size=&quot;1&quot; style=&quot;&quot;&gt;&lt;b style=&quot;font-size: 7px;&quot;&gt;CARD&lt;/b&gt;&lt;/font&gt;" style="rounded=1;whiteSpace=wrap;html=1;" parent="WIyWlLk6GJQsqaUBKTNV-1" vertex="1">
          <mxGeometry x="368" y="624" width="30" height="30" as="geometry" />
        </mxCell>
        <mxCell id="a4RW8in_WkRwGg94psA6-83" value="&lt;b&gt;&lt;font style=&quot;font-size: 9px;&quot;&gt;T&lt;/font&gt;&lt;/b&gt;" style="rounded=0;whiteSpace=wrap;html=1;fontSize=7;" parent="WIyWlLk6GJQsqaUBKTNV-1" vertex="1">
          <mxGeometry x="294" y="603" width="100" height="16" as="geometry" />
        </mxCell>
        <mxCell id="a4RW8in_WkRwGg94psA6-84" value="" style="endArrow=classic;html=1;rounded=0;fontSize=7;" parent="WIyWlLk6GJQsqaUBKTNV-1" edge="1">
          <mxGeometry width="50" height="50" relative="1" as="geometry">
            <mxPoint x="319.5" y="559" as="sourcePoint" />
            <mxPoint x="320" y="594" as="targetPoint" />
          </mxGeometry>
        </mxCell>
        <mxCell id="a4RW8in_WkRwGg94psA6-85" value="" style="endArrow=classic;html=1;rounded=0;fontSize=7;" parent="WIyWlLk6GJQsqaUBKTNV-1" edge="1">
          <mxGeometry width="50" height="50" relative="1" as="geometry">
            <mxPoint x="319.5" y="658" as="sourcePoint" />
            <mxPoint x="320" y="693" as="targetPoint" />
          </mxGeometry>
        </mxCell>
        <mxCell id="a4RW8in_WkRwGg94psA6-86" value="" style="rounded=0;whiteSpace=wrap;html=1;align=right;" parent="WIyWlLk6GJQsqaUBKTNV-1" vertex="1">
          <mxGeometry x="276" y="696" width="140" height="60" as="geometry" />
        </mxCell>
        <mxCell id="a4RW8in_WkRwGg94psA6-87" value="&lt;b&gt;&lt;font style=&quot;font-size: 10px;&quot;&gt;&amp;lt; SLIDESHOW &amp;gt;&lt;/font&gt;&lt;/b&gt;" style="rounded=1;whiteSpace=wrap;html=1;fontSize=7;" parent="WIyWlLk6GJQsqaUBKTNV-1" vertex="1">
          <mxGeometry x="293" y="711" width="110" height="30" as="geometry" />
        </mxCell>
        <mxCell id="a4RW8in_WkRwGg94psA6-88" value="" style="rounded=0;whiteSpace=wrap;html=1;align=right;" parent="WIyWlLk6GJQsqaUBKTNV-1" vertex="1">
          <mxGeometry x="276" y="793" width="140" height="60" as="geometry" />
        </mxCell>
        <mxCell id="a4RW8in_WkRwGg94psA6-90" value="FOOTER" style="rounded=0;whiteSpace=wrap;html=1;fontSize=10;" parent="WIyWlLk6GJQsqaUBKTNV-1" vertex="1">
          <mxGeometry x="287" y="809" width="120" height="30" as="geometry" />
        </mxCell>
        <mxCell id="a4RW8in_WkRwGg94psA6-91" value="" style="endArrow=classic;html=1;rounded=0;fontSize=7;" parent="WIyWlLk6GJQsqaUBKTNV-1" edge="1">
          <mxGeometry width="50" height="50" relative="1" as="geometry">
            <mxPoint x="319.5" y="756" as="sourcePoint" />
            <mxPoint x="320" y="791" as="targetPoint" />
          </mxGeometry>
        </mxCell>
        <mxCell id="a4RW8in_WkRwGg94psA6-92" value="" style="endArrow=classic;html=1;rounded=0;fontSize=7;" parent="WIyWlLk6GJQsqaUBKTNV-1" edge="1">
          <mxGeometry width="50" height="50" relative="1" as="geometry">
            <mxPoint x="176.5" y="690" as="sourcePoint" />
            <mxPoint x="177" y="725" as="targetPoint" />
          </mxGeometry>
        </mxCell>
        <mxCell id="a4RW8in_WkRwGg94psA6-94" value="" style="rounded=0;whiteSpace=wrap;html=1;align=right;" parent="WIyWlLk6GJQsqaUBKTNV-1" vertex="1">
          <mxGeometry x="106" y="727" width="140" height="60" as="geometry" />
        </mxCell>
        <mxCell id="a4RW8in_WkRwGg94psA6-95" value="FOOTER" style="rounded=0;whiteSpace=wrap;html=1;fontSize=10;" parent="WIyWlLk6GJQsqaUBKTNV-1" vertex="1">
          <mxGeometry x="116" y="743" width="120" height="30" as="geometry" />
        </mxCell>
        <mxCell id="a4RW8in_WkRwGg94psA6-97" value="" style="endArrow=classic;html=1;rounded=0;fontSize=10;" parent="WIyWlLk6GJQsqaUBKTNV-1" edge="1">
          <mxGeometry width="50" height="50" relative="1" as="geometry">
            <mxPoint x="355" y="100" as="sourcePoint" />
            <mxPoint x="440" y="280" as="targetPoint" />
          </mxGeometry>
        </mxCell>
        <mxCell id="a4RW8in_WkRwGg94psA6-98" value="" style="endArrow=classic;html=1;rounded=0;fontSize=10;" parent="WIyWlLk6GJQsqaUBKTNV-1" edge="1">
          <mxGeometry width="50" height="50" relative="1" as="geometry">
            <mxPoint x="414" y="100" as="sourcePoint" />
            <mxPoint x="580" y="280" as="targetPoint" />
          </mxGeometry>
        </mxCell>
        <mxCell id="a4RW8in_WkRwGg94psA6-100" value="&lt;b&gt;PRODUCT&lt;/b&gt;" style="rounded=0;whiteSpace=wrap;html=1;fontSize=7;" parent="WIyWlLk6GJQsqaUBKTNV-1" vertex="1">
          <mxGeometry x="440" y="280" width="60" height="30" as="geometry" />
        </mxCell>
        <mxCell id="a4RW8in_WkRwGg94psA6-101" value="&lt;b&gt;CONTACT&lt;/b&gt;" style="rounded=0;whiteSpace=wrap;html=1;fontSize=7;" parent="WIyWlLk6GJQsqaUBKTNV-1" vertex="1">
          <mxGeometry x="580" y="280" width="60" height="30" as="geometry" />
        </mxCell>
        <mxCell id="a4RW8in_WkRwGg94psA6-102" value="" style="endArrow=classic;html=1;rounded=0;fontSize=7;" parent="WIyWlLk6GJQsqaUBKTNV-1" edge="1">
          <mxGeometry width="50" height="50" relative="1" as="geometry">
            <mxPoint x="469.5" y="310" as="sourcePoint" />
            <mxPoint x="470" y="345" as="targetPoint" />
          </mxGeometry>
        </mxCell>
        <mxCell id="a4RW8in_WkRwGg94psA6-104" value="" style="rounded=0;whiteSpace=wrap;html=1;align=right;" parent="WIyWlLk6GJQsqaUBKTNV-1" vertex="1">
          <mxGeometry x="430" y="350" width="140" height="60" as="geometry" />
        </mxCell>
        <mxCell id="a4RW8in_WkRwGg94psA6-105" value="&lt;font size=&quot;1&quot; style=&quot;&quot;&gt;&lt;b style=&quot;font-size: 7px;&quot;&gt;CARD&lt;/b&gt;&lt;/font&gt;" style="rounded=1;whiteSpace=wrap;html=1;" parent="WIyWlLk6GJQsqaUBKTNV-1" vertex="1">
          <mxGeometry x="443" y="376" width="30" height="30" as="geometry" />
        </mxCell>
        <mxCell id="a4RW8in_WkRwGg94psA6-106" value="&lt;font size=&quot;1&quot; style=&quot;&quot;&gt;&lt;b style=&quot;font-size: 7px;&quot;&gt;CARD&lt;/b&gt;&lt;/font&gt;" style="rounded=1;whiteSpace=wrap;html=1;" parent="WIyWlLk6GJQsqaUBKTNV-1" vertex="1">
          <mxGeometry x="483" y="376" width="30" height="30" as="geometry" />
        </mxCell>
        <mxCell id="a4RW8in_WkRwGg94psA6-107" value="&lt;font size=&quot;1&quot; style=&quot;&quot;&gt;&lt;b style=&quot;font-size: 7px;&quot;&gt;CARD&lt;/b&gt;&lt;/font&gt;" style="rounded=1;whiteSpace=wrap;html=1;" parent="WIyWlLk6GJQsqaUBKTNV-1" vertex="1">
          <mxGeometry x="523" y="376" width="30" height="30" as="geometry" />
        </mxCell>
        <mxCell id="a4RW8in_WkRwGg94psA6-108" value="&lt;b&gt;&lt;font style=&quot;font-size: 9px;&quot;&gt;T&lt;/font&gt;&lt;/b&gt;" style="rounded=0;whiteSpace=wrap;html=1;fontSize=7;" parent="WIyWlLk6GJQsqaUBKTNV-1" vertex="1">
          <mxGeometry x="449" y="355" width="100" height="16" as="geometry" />
        </mxCell>
        <mxCell id="a4RW8in_WkRwGg94psA6-109" value="" style="endArrow=classic;html=1;rounded=0;fontSize=7;" parent="WIyWlLk6GJQsqaUBKTNV-1" edge="1">
          <mxGeometry width="50" height="50" relative="1" as="geometry">
            <mxPoint x="469.5" y="411" as="sourcePoint" />
            <mxPoint x="470" y="446" as="targetPoint" />
          </mxGeometry>
        </mxCell>
        <mxCell id="a4RW8in_WkRwGg94psA6-111" value="" style="rounded=0;whiteSpace=wrap;html=1;align=right;" parent="WIyWlLk6GJQsqaUBKTNV-1" vertex="1">
          <mxGeometry x="431" y="449" width="140" height="60" as="geometry" />
        </mxCell>
        <mxCell id="a4RW8in_WkRwGg94psA6-112" value="&lt;font size=&quot;1&quot; style=&quot;&quot;&gt;&lt;b style=&quot;font-size: 7px;&quot;&gt;CARD&lt;/b&gt;&lt;/font&gt;" style="rounded=1;whiteSpace=wrap;html=1;" parent="WIyWlLk6GJQsqaUBKTNV-1" vertex="1">
          <mxGeometry x="444" y="475" width="30" height="30" as="geometry" />
        </mxCell>
        <mxCell id="a4RW8in_WkRwGg94psA6-113" value="&lt;font size=&quot;1&quot; style=&quot;&quot;&gt;&lt;b style=&quot;font-size: 7px;&quot;&gt;CARD&lt;/b&gt;&lt;/font&gt;" style="rounded=1;whiteSpace=wrap;html=1;" parent="WIyWlLk6GJQsqaUBKTNV-1" vertex="1">
          <mxGeometry x="484" y="475" width="30" height="30" as="geometry" />
        </mxCell>
        <mxCell id="a4RW8in_WkRwGg94psA6-114" value="&lt;font size=&quot;1&quot; style=&quot;&quot;&gt;&lt;b style=&quot;font-size: 7px;&quot;&gt;CARD&lt;/b&gt;&lt;/font&gt;" style="rounded=1;whiteSpace=wrap;html=1;" parent="WIyWlLk6GJQsqaUBKTNV-1" vertex="1">
          <mxGeometry x="524" y="475" width="30" height="30" as="geometry" />
        </mxCell>
        <mxCell id="a4RW8in_WkRwGg94psA6-115" value="&lt;b&gt;&lt;font style=&quot;font-size: 9px;&quot;&gt;T&lt;/font&gt;&lt;/b&gt;" style="rounded=0;whiteSpace=wrap;html=1;fontSize=7;" parent="WIyWlLk6GJQsqaUBKTNV-1" vertex="1">
          <mxGeometry x="450" y="454" width="100" height="16" as="geometry" />
        </mxCell>
        <mxCell id="a4RW8in_WkRwGg94psA6-116" value="" style="rounded=0;whiteSpace=wrap;html=1;align=right;" parent="WIyWlLk6GJQsqaUBKTNV-1" vertex="1">
          <mxGeometry x="431" y="550" width="140" height="60" as="geometry" />
        </mxCell>
        <mxCell id="a4RW8in_WkRwGg94psA6-117" value="FOOTER" style="rounded=0;whiteSpace=wrap;html=1;fontSize=10;" parent="WIyWlLk6GJQsqaUBKTNV-1" vertex="1">
          <mxGeometry x="441" y="566" width="120" height="30" as="geometry" />
        </mxCell>
        <mxCell id="a4RW8in_WkRwGg94psA6-118" value="" style="endArrow=classic;html=1;rounded=0;fontSize=7;" parent="WIyWlLk6GJQsqaUBKTNV-1" edge="1">
          <mxGeometry width="50" height="50" relative="1" as="geometry">
            <mxPoint x="469.5" y="513" as="sourcePoint" />
            <mxPoint x="470" y="548" as="targetPoint" />
          </mxGeometry>
        </mxCell>
        <mxCell id="a4RW8in_WkRwGg94psA6-119" value="" style="endArrow=classic;html=1;rounded=0;fontSize=10;" parent="WIyWlLk6GJQsqaUBKTNV-1" edge="1">
          <mxGeometry width="50" height="50" relative="1" as="geometry">
            <mxPoint x="610" y="310" as="sourcePoint" />
            <mxPoint x="650" y="350" as="targetPoint" />
          </mxGeometry>
        </mxCell>
        <mxCell id="a4RW8in_WkRwGg94psA6-120" value="&lt;b style=&quot;&quot;&gt;&lt;font style=&quot;font-size: 25px;&quot;&gt;T&amp;nbsp; &amp;nbsp; &amp;nbsp;&lt;/font&gt;&lt;/b&gt;" style="rounded=0;whiteSpace=wrap;html=1;align=right;" parent="WIyWlLk6GJQsqaUBKTNV-1" vertex="1">
          <mxGeometry x="600" y="351" width="140" height="60" as="geometry" />
        </mxCell>
        <mxCell id="a4RW8in_WkRwGg94psA6-121" value="&lt;font size=&quot;1&quot;&gt;&lt;b style=&quot;font-size: 7px;&quot;&gt;EMBED&lt;/b&gt;&lt;/font&gt;" style="rounded=1;whiteSpace=wrap;html=1;" parent="WIyWlLk6GJQsqaUBKTNV-1" vertex="1">
          <mxGeometry x="624" y="361" width="30" height="40" as="geometry" />
        </mxCell>
        <mxCell id="a4RW8in_WkRwGg94psA6-122" value="&lt;font style=&quot;font-size: 15px;&quot;&gt;&lt;b&gt;T&lt;/b&gt;&lt;/font&gt;" style="rounded=1;whiteSpace=wrap;html=1;" parent="WIyWlLk6GJQsqaUBKTNV-1" vertex="1">
          <mxGeometry x="684" y="361" width="30" height="40" as="geometry" />
        </mxCell>
        <mxCell id="a4RW8in_WkRwGg94psA6-123" value="" style="endArrow=classic;html=1;rounded=0;fontSize=7;" parent="WIyWlLk6GJQsqaUBKTNV-1" edge="1">
          <mxGeometry width="50" height="50" relative="1" as="geometry">
            <mxPoint x="650" y="414" as="sourcePoint" />
            <mxPoint x="650.5" y="449" as="targetPoint" />
          </mxGeometry>
        </mxCell>
        <mxCell id="a4RW8in_WkRwGg94psA6-124" value="" style="rounded=0;whiteSpace=wrap;html=1;align=right;" parent="WIyWlLk6GJQsqaUBKTNV-1" vertex="1">
          <mxGeometry x="600" y="449" width="140" height="60" as="geometry" />
        </mxCell>
        <mxCell id="a4RW8in_WkRwGg94psA6-125" value="FOOTER" style="rounded=0;whiteSpace=wrap;html=1;fontSize=10;" parent="WIyWlLk6GJQsqaUBKTNV-1" vertex="1">
          <mxGeometry x="610" y="465" width="120" height="30" as="geometry" />
        </mxCell>
        <mxCell id="ZO3wPouSqJAyz2L4o3hB-0" value="PHOENIX ENERGY WEBSITE CONCEPTUALIZATION SITEMAP/WIREFRAME" style="rounded=1;whiteSpace=wrap;html=1;" vertex="1" parent="WIyWlLk6GJQsqaUBKTNV-1">
          <mxGeometry x="225" y="-40" width="425" height="60" as="geometry" />
        </mxCell>
      </root>
    </mxGraphModel>
  </diagram>
</mxfile>
